<?xml version="1.0" encoding="utf-8"?>
<!-- Generator: Adobe Illustrator 16.0.0, SVG Export Plug-In . SVG Version: 6.00 Build 0)  -->
<!DOCTYPE svg PUBLIC "-//W3C//DTD SVG 1.1//EN" "http://www.w3.org/Graphics/SVG/1.1/DTD/svg11.dtd">
<svg version="1.1" id="Layer_1" xmlns="http://www.w3.org/2000/svg" xmlns:xlink="http://www.w3.org/1999/xlink" x="0px" y="0px"
	 width="200px" height="200.001px" viewBox="0 0 200 200.001" enable-background="new 0 0 200 200.001" xml:space="preserve">
<g>
	<circle fill-rule="evenodd" clip-rule="evenodd" fill="#1375B3" cx="100" cy="100" r="89.229"/>
	<path fill="#FFFFFF" d="M100,200.001C44.86,200.001,0,155.141,0,100C0,44.86,44.86,0,100,0s100,44.86,100,100
		C200,155.141,155.14,200.001,100,200.001z M100,21.541c-43.263,0-78.459,35.196-78.459,78.459c0,43.264,35.196,78.46,78.459,78.46
		s78.459-35.196,78.459-78.46C178.459,56.737,143.263,21.541,100,21.541z"/>
</g>
<g>
	<path fill-rule="evenodd" clip-rule="evenodd" fill="#1375B3" d="M100.452,190.235c-49.125-0.012-89.881-40.521-89.859-89.315
		c0.022-50.203,40.077-90.593,89.854-90.608c49.912-0.015,89.915,40.521,89.86,91.055
		C190.255,149.777,149.336,190.248,100.452,190.235z M49.427,64.975c-5.683-0.729-8.125,1.178-7.563,5.495
		c0.517,3.978,3.71,4.222,6.628,4.751c10.131,1.836,20.263,3.679,30.418,5.369c3.468,0.576,5.661,2.254,5.485,5.818
		c-0.4,8.179-0.262,16.499-1.797,24.481c-3.038,15.802-7.057,31.413-10.678,47.102c-1.187,5.144,0.339,8.727,4.246,9.902
		c4.807,1.446,8.358-0.686,9.954-6.161c3.917-13.441,7.729-26.912,11.701-40.337c0.417-1.406,1.625-2.579,2.466-3.861
		c0.954,1.324,2.355,2.516,2.793,3.993c4.022,13.563,7.84,27.188,11.8,40.769c1.417,4.857,4.925,6.846,9.541,5.676
		c3.896-0.988,5.771-4.531,4.711-9.227c-2.066-9.163-4.17-18.318-6.346-27.455c-3.386-14.224-7-28.389-6.254-43.231
		c0.216-4.284,1.359-6.981,6.133-7.71c10.175-1.554,20.281-3.556,30.436-5.26c3.649-0.612,6.422-1.873,5.906-6.219
		c-0.5-4.218-3.469-4.678-6.934-4.323c-10.694,1.098-21.373,2.44-32.093,3.153c-9.511,0.634-19.096,1.112-28.602,0.66
		C77.373,67.696,63.409,66.147,49.427,64.975z M116.435,45.354c0.148-9.33-6.52-16.249-15.777-16.371
		c-9.028-0.118-16.093,6.649-16.197,15.517c-0.108,9.196,6.801,16.409,15.786,16.481C109.135,61.053,116.295,54.14,116.435,45.354z"
		/>
	<path fill-rule="evenodd" clip-rule="evenodd" fill="#FFFFFF" d="M49.427,64.975c13.982,1.173,27.946,2.722,41.952,3.386
		c9.505,0.452,19.09-0.026,28.602-0.66c10.72-0.713,21.399-2.056,32.093-3.153c3.465-0.354,6.434,0.105,6.934,4.323
		c0.516,4.346-2.257,5.606-5.906,6.219c-10.154,1.704-20.26,3.706-30.436,5.26c-4.774,0.729-5.917,3.426-6.133,7.71
		c-0.746,14.843,2.868,29.008,6.254,43.231c2.176,9.137,4.28,18.292,6.346,27.455c1.06,4.695-0.815,8.238-4.711,9.227
		c-4.615,1.17-8.124-0.818-9.541-5.676c-3.96-13.581-7.778-27.206-11.8-40.769c-0.438-1.478-1.839-2.669-2.793-3.993
		c-0.841,1.282-2.049,2.455-2.466,3.861c-3.973,13.425-7.784,26.896-11.701,40.337c-1.596,5.476-5.147,7.607-9.954,6.161
		c-3.907-1.176-5.433-4.759-4.246-9.902c3.621-15.688,7.64-31.3,10.678-47.102c1.535-7.982,1.396-16.303,1.797-24.481
		c0.175-3.564-2.017-5.242-5.485-5.818c-10.156-1.69-20.287-3.533-30.418-5.369c-2.918-0.529-6.111-0.773-6.628-4.751
		C41.303,66.152,43.745,64.246,49.427,64.975z"/>
	<path fill-rule="evenodd" clip-rule="evenodd" fill="#FFFFFF" d="M116.435,45.354c-0.14,8.786-7.3,15.699-16.188,15.627
		c-8.985-0.072-15.895-7.285-15.786-16.481c0.104-8.867,7.169-15.635,16.197-15.517C109.916,29.104,116.583,36.023,116.435,45.354z"
		/>
</g>
</svg>
