<svg xmlns="http://www.w3.org/2000/svg" width="22.199" height="54" viewBox="0 0 22.199 54">
  <path id="Union_203" data-name="Union 203" d="M4.562,1.785q-.831-.761-1.719-1.5A1.009,1.009,0,0,0,2.361.071a.954.954,0,0,0-.736,1.674q.728.605,1.415,1.227A8.5,8.5,0,0,0,1.057,13.59a.943.943,0,0,0,1.326.352A8.509,8.509,0,0,0,6.422,6.4,36.022,36.022,0,0,1,9.4,10.315,8.728,8.728,0,0,0,6.475,20.893a.949.949,0,0,0,1.295.465A8.472,8.472,0,0,0,12.2,15.582a28.093,28.093,0,0,1,1.443,4.565,7.564,7.564,0,0,0-5.63,7.788c.136,1.994,4.281.253,5.981-1.782.1-.12.2-.242.291-.367a26.813,26.813,0,0,1-.477,5.183,8.5,8.5,0,0,0-1.008-.2c-4.479-.632-7.764,3.225-7.385,4.425.352,1.064,4.051,2.033,7.1.389a31.7,31.7,0,0,1-1.891,4.132,6.9,6.9,0,0,0-1.973-.578A7.2,7.2,0,0,0,1.765,42.1c-1.142,1.615,3.023,2.833,5.517,2.337.1-.019.2-.042.3-.068q-.546.715-1.138,1.423A7.2,7.2,0,0,0,.2,53.093c.071,2.386,7.494-.04,7.647-6.032Q8.737,46,9.528,44.925a7.191,7.191,0,0,0,3.646,5.091c1.728.943,2.458-3.306,1.674-5.743a7.223,7.223,0,0,0-2.6-3.6,33.982,33.982,0,0,0,1.832-3.908A7.131,7.131,0,0,0,18.569,40.6a.953.953,0,0,0,1.191-.681,7.192,7.192,0,0,0-4.165-8.275,28.769,28.769,0,0,0,.577-5.478,7.53,7.53,0,0,0,5.045,2.083c2.007.032.613-4.249-1.263-6.121A7.525,7.525,0,0,0,15.7,20.014l-.152-.02A30.033,30.033,0,0,0,13.8,14.5a8.5,8.5,0,0,0,7.5-.342.935.935,0,0,0,.351-1.326,8.494,8.494,0,0,0-6.067-3.961,10.154,10.154,0,0,0-4.493.552A37.11,37.11,0,0,0,8.569,5.991a8.521,8.521,0,0,0,7.049-2.3C17.076,2.29,12.962.364,10.959.084A8.554,8.554,0,0,0,9.762,0,8.468,8.468,0,0,0,4.562,1.785Z" transform="translate(22.2 54) rotate(180)" fill="rgb(233, 236, 239)"/>
</svg>
