<svg xmlns="http://www.w3.org/2000/svg" width="22.199" height="54" viewBox="0 0 22.199 54">
  <path id="Union_202" data-name="Union 202" d="M-15140.188,2911.869c-.556.507-1.126,1.007-1.72,1.5a.994.994,0,0,1-.481.217.954.954,0,0,1-.734-1.674q.729-.6,1.413-1.227a8.5,8.5,0,0,1-1.981-10.619.942.942,0,0,1,1.325-.352,8.506,8.506,0,0,1,4.039,7.539,36.169,36.169,0,0,0,2.979-3.912,8.728,8.728,0,0,1-2.926-10.579.949.949,0,0,1,1.294-.465,8.469,8.469,0,0,1,4.425,5.776,28.286,28.286,0,0,0,1.445-4.565,7.566,7.566,0,0,1-5.632-7.788c.138-1.994,4.282-.252,5.982,1.782.1.12.2.242.291.367a26.79,26.79,0,0,0-.478-5.183,8.623,8.623,0,0,1-1.008.2c-4.479.632-7.765-3.225-7.387-4.426.354-1.064,4.052-2.032,7.1-.389a31.709,31.709,0,0,0-1.892-4.132,6.89,6.89,0,0,1-1.973.578,7.2,7.2,0,0,1-6.879-2.969c-1.142-1.615,3.022-2.833,5.516-2.336.1.019.2.042.3.068-.362-.477-.744-.951-1.138-1.423a7.2,7.2,0,0,1-6.234-7.3c.067-2.386,7.491.04,7.645,6.032q.886,1.059,1.678,2.135a7.184,7.184,0,0,1,3.646-5.091c1.73-.943,2.458,3.306,1.675,5.742a7.24,7.24,0,0,1-2.606,3.6,34.005,34.005,0,0,1,1.834,3.908,7.133,7.133,0,0,1,4.493-3.832.955.955,0,0,1,1.192.682,7.2,7.2,0,0,1-4.165,8.275,29.019,29.019,0,0,1,.577,5.477,7.529,7.529,0,0,1,5.044-2.083c2.008-.032.611,4.249-1.264,6.121a7.521,7.521,0,0,1-4.254,2.112l-.151.02a30.286,30.286,0,0,1-1.743,5.493,8.5,8.5,0,0,1,7.5.342.934.934,0,0,1,.35,1.326,8.487,8.487,0,0,1-6.066,3.961,10.155,10.155,0,0,1-4.492-.552,37.544,37.544,0,0,1-2.525,3.433,8.522,8.522,0,0,1,7.049,2.3c1.459,1.4-2.655,3.329-4.659,3.609a8.58,8.58,0,0,1-1.2.084A8.471,8.471,0,0,1-15140.188,2911.869Z" transform="translate(15144.749 -2859.654)" fill="#3a3a3a"/>
</svg>
