<?xml version="1.0" encoding="utf-8"?>
<!-- Generator: Adobe Illustrator 16.0.0, SVG Export Plug-In . SVG Version: 6.00 Build 0)  -->
<!DOCTYPE svg PUBLIC "-//W3C//DTD SVG 1.1//EN" "http://www.w3.org/Graphics/SVG/1.1/DTD/svg11.dtd">
<svg version="1.1" id="Layer_1" xmlns="http://www.w3.org/2000/svg" xmlns:xlink="http://www.w3.org/1999/xlink" x="0px" y="0px"
	 width="114.938px" height="22.455px" viewBox="2.535 18.776 114.938 22.455" enable-background="new 2.535 18.776 114.938 22.455"
	 xml:space="preserve">
<path fill="#5B6D7E" d="M12.822,18.776l-0.268,4.025h-1.968l-0.18-2.504h-3.13v5.992h1.342c0.1-0.447,0.18-0.894,0.358-1.342h1.43
	v4.114h-1.34l-0.358-1.342H7.366v6.35h3.13l0.268-2.772l2.146,0.101l0.18,4.203H2.805v-1.43l1.43-0.268V20.475l-1.7-0.268v-1.43
	H12.82L12.822,18.776z M49.122,41.225c0-0.447,0.1-0.806,0.1-1.164l1.073-0.268v-14.3c-0.447-0.1-0.805-0.1-1.252-0.18V24.15
	l3.4-0.447c0.1,0.447,0.268,0.894,0.358,1.252c0.1,0,0.1-0.1,0.18-0.1c0.805-0.984,1.878-1.252,3.13-1.163
	c1.52,0.18,2.415,1.163,2.773,2.504c0.18,0.626,0.358,1.252,0.358,1.878c0.1,1.342,0.1,2.683-0.1,3.935
	c-0.1,0.447-0.268,0.984-0.447,1.431c-0.626,1.342-1.7,2.146-3.13,2.235c-0.805,0.101-1.52,0-2.236-0.358h-0.18V39.8l1.163,0.269
	c0,0.357-0.1,0.715-0.1,1.162h-5.098L49.122,41.225z M53.147,33.801c0.894,0.358,1.8,0.447,2.683,0.1
	c0.16-0.07,0.288-0.197,0.358-0.357c0.1-0.447,0.268-0.895,0.268-1.342c0.18-1.342,0.18-2.773,0.1-4.114
	c-0.002-0.489-0.093-0.974-0.268-1.431c-0.268-0.984-0.984-1.342-1.968-1.163h-0.18c-0.626,0.1-0.984,0.537-0.984,1.163V33.8
	L53.147,33.801z M87.134,34.07l1.163,0.269c0,0.447,0,0.806-0.1,1.252h-3.936v-8.05c0-0.358-0.1-0.715-0.18-1.073
	c-0.1-0.447-0.447-0.626-0.895-0.715c-0.446-0.089-0.805-0.1-1.162,0.1c-0.358,0.2-0.627,0.358-0.627,0.805v7.423l1.164,0.269
	c0,0.357-0.101,0.805-0.101,1.252h-5.008v-1.25l1.163-0.269v-8.497c-0.447-0.1-0.805-0.1-1.252-0.18V24.14l3.3-0.447l0.269,1.073
	c0.268-0.18,0.537-0.447,0.805-0.626c1.072-0.715,2.324-0.805,3.488-0.358c0.983,0.358,1.52,1.163,1.699,2.236
	c0.1,0.268,0.1,0.626,0.1,0.894v6.708c0.066,0.14,0.097,0.293,0.091,0.446L87.134,34.07z M17.91,34.171l1.163,0.269
	c0,0.446-0.1,0.805-0.1,1.252h-5.098c0-0.358,0-0.806,0.1-1.252l1.073-0.269c0.1-0.269,0.1-8.05,0-8.497
	c-0.358-0.1-0.805-0.1-1.252-0.18V24.23l3.3-0.447l0.268,1.073l0.268-0.268c1.073-0.894,2.325-1.163,3.667-0.805
	c1.163,0.268,1.8,1.073,2.057,2.236c0.1,0.268,0.1,0.626,0.1,0.894v7.155l1.163,0.268V35.6h-3.935v-7.78c0-0.268,0-0.626-0.1-0.894
	c-0.1-0.715-0.537-1.073-1.163-1.163c-0.537-0.1-0.984,0-1.342,0.447c-0.18,0.18-0.18,0.358-0.18,0.626v7.334L17.91,34.171z
	 M105.21,25.305c-0.446,0-0.806-0.1-1.252-0.1v-1.073l3.847-0.447c0.18,0.447,0.357,0.894,0.357,1.43v9.033l1.163,0.268
	c0,0.447-0.101,0.805-0.101,1.252h-3.3c-0.1-0.268-0.18-0.626-0.268-0.984c-0.101,0.101-0.181,0.181-0.269,0.181
	c-1.342,1.252-3.13,1.073-4.293,0.536c-0.894-0.446-1.342-1.162-1.52-2.146c-0.1-0.358-0.1-0.626-0.1-0.983v-6.888
	c-0.447-0.1-0.895-0.1-1.252-0.18V24.14l3.756-0.447c0.1,0.447,0.268,0.805,0.268,1.252v6.797c0,0.268,0,0.626,0.1,0.894
	c0.101,0.806,0.627,1.343,1.43,1.343c0.269,0,0.627-0.101,0.895-0.101c0.268-0.101,0.715-0.626,0.715-0.894V25.56
	c-0.18-0.1-0.18-0.18-0.18-0.268L105.21,25.305z M42.793,30.402c0,0.984,0.18,1.8,0.626,2.594c0.447,0.626,1.073,0.984,1.878,1.072
	c0.805,0,1.52-0.18,2.236-0.446c0.1,0,0.18-0.101,0.358-0.101c0.18,0.358,0.268,0.715,0.447,1.073
	c-0.18,0.181-0.447,0.269-0.626,0.447c-1.43,0.806-2.95,1.073-4.472,0.537c-1.342-0.358-2.146-1.252-2.773-2.504
	c-0.626-1.343-0.805-2.773-0.626-4.204c0.1-0.894,0.268-1.8,0.626-2.594c0.626-1.342,1.6-2.236,3.04-2.504s2.683-0.1,3.756,0.894
	c0.626,0.626,0.984,1.43,1.252,2.236c0.268,0.894,0.358,1.7,0.358,2.594c0,0.268-0.18,0.537-0.268,0.894h-5.813L42.793,30.402z
	 M46.281,28.882c0-0.358-0.1-0.626-0.1-0.894c-0.1-0.715-0.18-1.342-0.537-1.968c-0.358-0.715-0.984-0.894-1.7-0.626
	c-0.268,0.1-0.447,0.268-0.626,0.537c-0.358,0.984-0.537,1.968-0.626,2.95v0.268l3.577-0.268L46.281,28.882z M97.531,30.402
	l-5.813,0.1c-0.1,0.447,0,0.805,0.101,1.163c0.092,0.587,0.338,1.14,0.715,1.601c0.447,0.536,0.984,0.805,1.699,0.805
	c0.717,0,1.431-0.101,2.146-0.358c0.18-0.101,0.268-0.101,0.447-0.18c0.18,0.358,0.268,0.715,0.447,1.073
	c-0.101,0-0.101,0.1-0.181,0.1c-1.252,0.895-2.594,1.163-4.114,1.072c-1.799-0.18-3.039-1.252-3.666-2.949
	c-0.895-2.146-0.806-4.293,0.1-6.44c0.537-1.342,1.52-2.325,3.04-2.594c1.163-0.268,2.325-0.18,3.3,0.537
	c0.715,0.537,1.163,1.252,1.52,1.968c0.358,0.984,0.537,2.146,0.537,3.22c0,0.268-0.18,0.537-0.268,0.894L97.531,30.402z
	 M95.295,28.882c0-0.805-0.1-1.52-0.357-2.236c-0.101-0.358-0.269-0.715-0.537-0.984c-0.447-0.626-1.879-0.447-2.058,0.358
	c-0.18,0.626-0.358,1.252-0.446,1.968c-0.101,0.358-0.101,0.715-0.101,1.163l3.488-0.268L95.295,28.882z M76.959,30.402l-5.813,0.1
	c0,1.073,0.18,1.968,0.805,2.773c0.447,0.537,0.984,0.805,1.6,0.805c0.715,0,1.52-0.1,2.146-0.357
	c0.18-0.101,0.268-0.101,0.447-0.181c0.18,0.358,0.268,0.715,0.446,1.073c-0.18,0.1-0.268,0.18-0.358,0.268
	c-1.28,0.794-2.811,1.081-4.293,0.805c-1.43-0.268-2.414-1.162-3.039-2.414c-0.627-1.342-0.805-2.684-0.715-4.114
	c0.1-0.984,0.268-1.878,0.625-2.773c0.447-1.073,1.164-1.878,2.236-2.325c1.252-0.537,2.504-0.537,3.756,0.1
	c0.805,0.447,1.342,1.163,1.7,1.968c0.447,1.073,0.626,2.236,0.626,3.4c0.1,0.268-0.1,0.537-0.18,0.894L76.959,30.402z
	 M74.723,28.882c0-0.358-0.1-0.715-0.1-1.073c-0.1-0.626-0.18-1.252-0.537-1.8c-0.447-0.715-1.072-0.984-1.8-0.626
	c-0.181,0.1-0.358,0.18-0.447,0.447c-0.358,0.715-0.537,1.52-0.626,2.325c0,0.268-0.1,0.537-0.1,0.894c1.162,0,2.324-0.1,3.576-0.18
	L74.723,28.882z M35.18,23.784l0.268,1.073c0.18-0.1,0.268-0.18,0.447-0.268c0.805-0.447,1.7-0.715,2.594-0.805
	c0.447-0.1,0.805,0.1,1.073,0.447l-0.358,3.13c-0.626,0-1.252-0.1-1.878-0.1c-0.1-0.537-0.18-1.073-0.18-1.7
	c-0.447,0-0.805,0.18-1.163,0.447v8.051l1.163,0.268c0,0.357,0,0.805-0.1,1.163H32.05v-1.163l1.073-0.268V25.57
	c-0.447-0.1-0.805-0.1-1.252-0.18v-1.25c1.073,0,2.146-0.18,3.3-0.358L35.18,23.784z M109.859,35.6c0-0.447,0-0.805,0.101-1.162
	l1.073-0.269v-8.497c-0.358-0.1-0.805-0.1-1.252-0.18V24.23l3.4-0.447l0.268,0.984l1.43-0.626c0.537-0.18,0.984-0.268,1.52-0.358
	c0.447-0.1,0.806,0,1.074,0.447l-0.359,3.13c-0.625,0-1.252-0.1-1.877-0.1c-0.101-0.537-0.18-1.163-0.18-1.7l-1.164,0.447v8.14
	l1.164,0.269c0,0.358-0.101,0.805-0.101,1.163h-5.099L109.859,35.6z M65.4,25.573l-1.164,0.447v8.14l1.164,0.268
	c0,0.447-0.101,0.805-0.101,1.163h-5.008v-1.163l1.073-0.268v-8.497c-0.447-0.1-0.805-0.1-1.252-0.18V24.23l3.401-0.447l0.268,0.984
	l0.984-0.537c0.625-0.268,1.252-0.447,1.967-0.537c0.537,0,0.895,0.18,1.164,0.537l-0.358,3.13c-0.626,0-1.252-0.1-1.878-0.1
	l-0.268-1.7L65.4,25.573z M28.732,21.548v2.415H30.8c-0.1,0.537-0.1,0.984-0.1,1.52c-0.626,0-1.252,0.1-1.878,0.18v7.603
	c0.1,0.446,0.358,0.805,0.894,0.805h1.163c0,0.447,0.1,0.805,0.1,1.252c-0.268,0.18-0.626,0.268-0.984,0.357
	c-0.715,0.18-1.43,0.18-2.146,0.101c-1.073-0.181-1.8-0.895-1.968-2.058v-8.05c-0.447-0.1-0.894-0.18-1.342-0.18
	c0-0.447,0-0.984,0.1-1.43c0.537,0,0.984-0.1,1.52-0.1l0.626-2.236l1.968-0.18L28.732,21.548z"/>
</svg>
