<?xml version="1.0" encoding="utf-8"?>
<!-- Generator: Adobe Illustrator 16.0.0, SVG Export Plug-In . SVG Version: 6.00 Build 0)  -->
<!DOCTYPE svg PUBLIC "-//W3C//DTD SVG 1.1//EN" "http://www.w3.org/Graphics/SVG/1.1/DTD/svg11.dtd">
<svg version="1.1" id="Layer_1" xmlns="http://www.w3.org/2000/svg" xmlns:xlink="http://www.w3.org/1999/xlink" x="0px" y="0px"
	 width="153.016px" height="18.808px" viewBox="-39.167 36.086 153.016 18.808"
	 enable-background="new -39.167 36.086 153.016 18.808" xml:space="preserve">
<g>
	<path fill="#5B6D7E" d="M13.53,41.967v10H9.86v-10h-3.7v-3.199h11.07v3.199H13.53z M25.79,48.007h-5.85
		c-0.019,0.861,0.664,1.575,1.525,1.595c0.052,0.001,0.104,0,0.155-0.004c0.903-0.006,1.789-0.247,2.57-0.701l1.33,2.201
		c-1.203,0.74-2.587,1.135-4,1.139c-3,0-4.63-2.119-4.63-5.159c0-3.42,1.93-5.181,4.53-5.181s4.42,1.801,4.42,5.48
		c-0.04,0.24-0.04,0.45-0.05,0.62V48.007z M21.29,44.377c-0.78,0-1.2,0.53-1.32,1.52h2.83c-0.17-1-0.5-1.52-1.5-1.52H21.29z
		 M32.11,52.207c-2.9,0-4.64-1.85-4.64-5.2c0-3,1.54-5.14,4.72-5.14c1.596-0.053,3.08,0.819,3.81,2.24l-2.34,1.8
		c-0.47-0.86-0.8-1.28-1.53-1.28s-1.3,0.87-1.3,2.439c0,1.57,0.47,2.381,1.4,2.381c0.64,0,1.1-0.36,1.72-1.301l2.15,1.681
		c-1.16,1.7-2.23,2.37-4,2.37L32.11,52.207z M43.71,52.007v-5.63c0-1.3-0.43-1.63-1.13-1.63c-0.7,0-1.16,0.34-1.16,1.601v5.67h-3.4
		v-12.4l3.4-1.36v4.5c0.704-0.577,1.59-0.886,2.5-0.87c2.17,0,3.2,1.461,3.2,4.061v6.07L43.71,52.007z"/>
	<path fill="#5B6D7E" d="M55.27,52.207c-3.93,0-6-2.9-6-6.82c0-4.25,2.5-6.82,6-6.82c3.25,0,4.53,1.4,5.44,3.9l-3.32,1.301
		c-0.48-1.23-0.93-2-2.14-2c-1.53,0-2.2,1.529-2.2,3.629c0,2.101,0.64,3.621,2.23,3.621c1.15,0,1.64-0.621,2.36-1.871l3.1,1.65
		c-0.94,2.167-3.121,3.527-5.48,3.42L55.27,52.207z M69.13,45.807c-0.38-0.494-0.957-0.798-1.58-0.83c-0.829,0-1.34,0.4-1.34,1.601
		v5.399h-3.399v-9.899h3.399v0.72c0.968-1.021,2.514-1.232,3.72-0.51L69.13,45.807z M77.23,51.986v-0.659
		c-0.695,0.579-1.576,0.888-2.48,0.87c-2.17,0-3.2-1.461-3.2-4.07v-6.029h3.4v5.6c0,1.279,0.44,1.619,1.14,1.619
		c0.7,0,1.131-0.34,1.131-1.58v-5.639h3.42v9.92L77.23,51.986z M88.79,51.986v-5.629c0-1.301-0.44-1.631-1.13-1.631
		s-1.16,0.34-1.16,1.601v5.67h-3.4v-9.899h3.4v0.659c0.704-0.577,1.59-0.886,2.5-0.87c2.17,0,3.2,1.461,3.2,4.061v6.07L88.79,51.986
		z M98.84,52.188c-2.9,0-4.65-1.851-4.65-5.201c0-3,1.551-5.139,4.721-5.139c1.598-0.05,3.082,0.82,3.82,2.239l-2.34,1.771
		c-0.48-0.86-0.801-1.28-1.531-1.28c-0.729,0-1.299,0.87-1.299,2.44c0,1.569,0.469,2.379,1.399,2.379c0.64,0,1.101-0.359,1.72-1.299
		l2.15,1.68c-1.15,1.74-2.23,2.399-3.98,2.399L98.84,52.188z M110.439,51.986v-5.629c0-1.301-0.43-1.631-1.129-1.631
		c-0.701,0-1.15,0.34-1.15,1.601v5.67h-3.4V39.598l3.4-1.361v4.5c0.699-0.578,1.582-0.887,2.49-0.869c2.18,0,3.199,1.46,3.199,4.06
		v6.07L110.439,51.986z"/>
	<path fill="#5B6D7E" d="M-39.167,36.086v6.272h6.264v12.535h6.272V42.358h6.263v-6.272H-39.167z M-14.095,48.62v-6.262h-6.272
		v12.534h18.808V48.62H-14.095z M-14.095,36.086h12.536v6.272h-12.536V36.086z"/>
</g>
</svg>
