<?xml version="1.0" encoding="utf-8"?>
<!-- Generator: Adobe Illustrator 16.0.0, SVG Export Plug-In . SVG Version: 6.00 Build 0)  -->
<!DOCTYPE svg PUBLIC "-//W3C//DTD SVG 1.1//EN" "http://www.w3.org/Graphics/SVG/1.1/DTD/svg11.dtd">
<svg version="1.1" id="Layer_1" xmlns="http://www.w3.org/2000/svg" xmlns:xlink="http://www.w3.org/1999/xlink" x="0px" y="0px"
	 width="459.401px" height="40px" viewBox="5.3 10 459.401 40" enable-background="new 5.3 10 459.401 40" xml:space="preserve">
<path fill="#5B6D7E" d="M18.004,46.109c0,1.774,0.514,2.117,1.66,2.404l1.774,0.4v0.8H9.65v-0.8l1.488-0.344
	c1.144-0.285,1.66-0.859,1.66-2.459V11.43h-1.26C8,11.43,6.56,17.2,6.16,23.333H5.3V10.286h20.2v13.047h-0.858
	c-0.4-6.123-1.83-11.903-5.38-11.903h-1.26L18.004,46.109z M26.759,48.914l1.26-0.344c1.144-0.286,1.66-0.858,1.66-2.461V13.834
	c0-1.602-0.514-2.117-1.66-2.404l-1.26-0.343v-0.8h11.16v0.802l-1.316,0.343c-1.087,0.286-1.717,0.744-1.717,2.346v15.05h8.64
	v-15.05c0-1.602-0.63-2.06-1.717-2.346l-1.316-0.343v-0.802h11.16v0.8l-1.26,0.343c-1.144,0.286-1.66,0.802-1.66,2.404v32.218
	c0,1.603,0.514,2.233,1.66,2.521l1.26,0.343v0.8h-11.16v-0.8l1.316-0.285c1.087-0.286,1.717-0.916,1.717-2.519V30.143h-8.64v15.966
	c0,1.603,0.63,2.232,1.717,2.519l1.316,0.286v0.8H26.76L26.759,48.914z M61.037,48.57h3.95c5.15,0,6.123-5.836,6.81-11.902h0.858
	v13.046H52.912v-0.8l1.26-0.344c1.144-0.285,1.66-0.859,1.66-2.459V13.89c0-1.602-0.514-2.174-1.66-2.46l-1.26-0.343v-0.8h19.17
	v13.047h-0.858c-0.63-6.123-1.83-11.903-6.237-11.903h-3.95v17.225l1.83-0.057c2.46-0.172,3.376-2.29,4.005-7.268h0.858V37.24
	h-0.858c-0.514-6.237-1.488-7.2-4.063-7.382l-1.774-0.057L61.037,48.57z M84.89,15.55c-0.743-3.376-1.2-3.89-2.29-4.177
	l-1.087-0.286v-0.802h10.7v0.802l-0.858,0.17c-1.83,0.4-1.66,2.232-1.144,4.693l4.52,22.432l3.32-17.854l-1.2-6.124
	c-0.458-2.174-0.63-2.86-1.774-3.147l-0.743-0.17v-0.8h10.472v0.8l-1.26,0.23c-1.89,0.343-1.602,2.403-1.144,4.635l4.35,22.433
	l4.292-21.229c0.802-4.406,0.4-5.493-1.316-5.837l-1.203-0.23v-0.802h7.84v0.802l-1.087,0.286c-1.373,0.343-1.717,1.43-2.518,5.265
	l-6.98,33.304h-1.48l-5.38-25.979l-4.864,25.979h-1.89L84.89,15.55z M140.856,48.57h2.29c4.864,0,6.295-5.782,6.867-11.903h0.858
	v13.046h-29.242v-0.8l1.2-0.229c2.46-0.457,2.46-1.144,1.83-4.578l-1.087-5.15h-7.04l-0.743,3.893
	c-0.858,4.406-0.4,5.492,1.316,5.836l1.2,0.229v0.8h-7.954v-0.8l0.972-0.286c1.545-0.458,1.946-1.374,2.747-5.266l6.98-33.305h1.717
	l7.324,34.392c0.743,3.548,1.087,4.29,3.147,4.29c1.774,0,2.403-0.916,2.403-2.631V13.834c0-1.602-0.514-2.117-1.66-2.404
	l-1.26-0.343v-0.8h11.33v0.858l-1.545,0.343c-1.144,0.23-1.66,0.744-1.66,2.346L140.856,48.57z M116.764,37.641h6.524l-3.32-16.25
	L116.764,37.641z M160.254,48.57h2.29c4.864,0,6.295-5.782,6.867-11.903h0.858v13.046h-18.14v-0.8l1.26-0.343
	c1.144-0.286,1.66-0.86,1.66-2.461V13.834c0-1.602-0.514-2.117-1.66-2.404l-1.26-0.343v-0.8h11.33v0.858l-1.545,0.343
	c-1.144,0.23-1.66,0.744-1.66,2.346V48.57z M188.928,49.941c-3.318,0-4.463-2.287-5.55-2.287c-0.63,0-1.373,0.17-1.946,2.06h-0.686
	V36.666h0.858c0.686,7.382,3.434,12.016,7.268,12.016c2.575,0,4.35-2.346,4.35-6.58c0-8.927-12.76-12.76-12.76-22.66
	c0-5.322,2.747-9.385,7.61-9.385c3.147,0,3.834,2.06,5.15,2.06c0.743,0,1.26-0.572,1.545-1.83h0.686V23.33h-0.858
	c-0.686-6.58-2.46-12.017-6.58-12.017c-2.86,0-3.434,2.86-3.434,4.807c0,8.527,12.76,11.445,12.76,23.347
	c-0.002,6.068-3.32,10.473-8.413,10.473V49.941z M209.986,46.109c0,1.602,0.514,2.174,1.66,2.459l1.488,0.345v0.8h-11.502v-0.8
	l1.488-0.345c1.144-0.285,1.66-0.857,1.66-2.459V11.43h-1.26c-3.548,0-4.978,5.78-5.38,11.903h-0.858V10.286h20.2v13.047h-0.858
	c-0.4-6.123-1.83-11.903-5.38-11.903h-1.26v34.679H209.986z M218.741,48.913l1.26-0.345c1.144-0.285,1.66-0.857,1.66-2.459V13.834
	c0-1.602-0.514-2.117-1.66-2.404l-1.26-0.343v-0.8h10.93c4.864,0,9.386,3.1,9.386,9.556c0,4.98-2.347,8.47-7.097,9.73
	c5.208,0.972,5.208,3.434,5.724,10.013l0.344,5.036c0.172,2.804,0.287,3.435,1.087,3.435c0.858,0,1.202-1.945,1.202-3.834V43.25
	h0.972v1.314c0,3.148-0.687,5.381-3.948,5.381c-3.205,0-4.693-1.83-4.923-8.41l-0.286-7.325c-0.114-3.49-0.974-4.006-2.633-4.006
	h-2.69V46.1c0,1.603,0.514,2.232,1.66,2.519l1.26,0.286v0.8h-10.987V48.913z M226.811,29.056h1.89c3.205,0,4.807-0.858,4.807-8.47
	c0-7.612-2.117-9.156-4.406-9.156h-2.29L226.811,29.056z M249.758,48.57h3.948c5.149,0,6.124-5.838,6.81-11.903h0.858v13.046
	h-19.742v-0.8l1.261-0.343c1.144-0.286,1.659-0.86,1.659-2.461V13.89c0-1.602-0.514-2.174-1.659-2.46l-1.261-0.343v-0.8h19.171
	v13.047h-0.859c-0.627-6.123-1.829-11.903-6.236-11.903h-3.948v17.225l1.83-0.057c2.46-0.172,3.377-2.29,4.005-7.268h0.858V37.24
	h-0.858c-0.516-6.237-1.486-7.2-4.063-7.382l-1.772-0.057V48.57z M270.988,48.57h3.949c5.148,0,6.123-5.838,6.809-11.903h0.857
	v13.046h-19.739v-0.8l1.26-0.343c1.144-0.286,1.66-0.86,1.66-2.461V13.89c0-1.602-0.517-2.174-1.66-2.46l-1.26-0.343v-0.8h19.17
	v13.047h-0.858c-0.63-6.123-1.83-11.903-6.236-11.903h-3.95v17.225l1.829-0.057c2.461-0.172,3.377-2.29,4.007-7.268h0.858V37.24
	h-0.858c-0.515-6.237-1.488-7.2-4.063-7.382l-1.773-0.057V48.57z M296.568,46.109c0,1.774,0.516,2.117,1.66,2.404l1.773,0.4v0.8
	h-11.788v-0.8l1.488-0.344c1.142-0.285,1.659-0.859,1.659-2.459V11.43h-1.26c-3.547,0-4.978,5.78-5.379,11.903h-0.859V10.286h20.201
	v13.047h-0.858c-0.399-6.123-1.83-11.903-5.38-11.903h-1.26L296.568,46.109z M327.988,40.617c0,6.124-3.092,9.326-7.84,9.326
	c-4.291,0-6.809-3.5-6.752-7.324c0.064-2.975,2.231-4.463,4.006-4.234c1.26,0.17,2.518,1.088,2.346,3.1
	c-0.172,2.86-3.264,2.748-3.377,4.521c-0.114,1.088,1.316,2.7,3.146,2.7c3.205,0,3.205-4.063,3.205-7.153V13.777
	c0-1.602-0.516-2.06-1.773-2.346l-1.43-0.343v-0.802h11.273v0.8l-1.26,0.343c-1.145,0.286-1.545,0.8-1.545,2.404V40.617z
	 M341.323,50c-6.695,0-9.958-9.04-9.958-20.03c0-10.93,3.148-19.97,9.958-19.97c6.753,0,10.014,9.04,10.014,19.97
	C351.337,40.958,348.236,50,341.323,50z M341.323,11.316c-2.86,0-4.29,2.29-4.29,18.427c0,16.651,1.314,18.998,4.29,18.998
	s4.35-2.347,4.35-19.114C345.673,13.605,344.3,11.317,341.323,11.316L341.323,11.316z M374,48.913l1.26-0.345
	c1.145-0.285,1.66-0.857,1.66-2.459V13.834c0-1.89-0.857-2.575-2.859-2.575c-2.519,0-3.147,1.145-3.147,4.406V40.5
	c0,6.18-2.174,9.5-7.495,9.5c-5.493,0-8.697-3.318-8.697-9.327v-26.84c0-1.602-0.399-2.117-1.545-2.404l-1.26-0.343v-0.8H363.3v0.8
	l-1.545,0.343c-1.26,0.286-1.774,0.744-1.774,2.346V41.07c0,5.551,1.603,6.98,4.521,6.98c3.435,0,4.864-1.945,4.864-7.554V17.725
	c0-4.807-0.065-5.952-2.116-6.41l-1.087-0.23v-0.802h18.77c4.864,0,9.385,3.1,9.385,9.556c0,4.98-2.346,8.47-7.096,9.73
	c5.209,0.972,5.209,3.434,5.723,10.013l0.345,5.036c0.172,2.804,0.286,3.435,1.087,3.435c0.857,0,1.202-1.945,1.202-3.834v-0.973
	h0.972v1.314c0,3.148-0.686,5.381-3.947,5.381c-3.205,0-4.693-1.83-4.924-8.41l-0.285-7.325c-0.115-3.49-0.975-4.006-2.633-4.006
	h-2.689V46.1c0,1.603,0.514,2.232,1.66,2.519l1.26,0.286v0.8h-10.988v-0.8H374V48.913z M382.07,29.056h1.89
	c3.204,0,4.806-0.858,4.806-8.47c0-7.612-2.117-9.156-4.406-9.156h-2.289V29.056z M397.578,11.316l-0.8-0.23v-0.8h7.495
	l10.242,25.979V17.553c0-4.234,0.114-5.722-2.92-6.237l-0.972-0.23v-0.802h8.47v0.8l-0.8,0.23c-2.46,0.572-2.288,2.575-2.288,6.58
	v31.817h-1.83l-12.819-31.53v24.262c0,4.636,0,5.953,3.661,6.467v0.8h-8.241v-0.8l1.031-0.172c2.116-0.402,2.061-2.461,2.061-6.639
	V14.75c-0.974-2.002-1.374-3.1-2.3-3.433L397.578,11.316z M447.936,48.57h2.29c4.864,0,6.296-5.782,6.867-11.903h0.86v13.046
	h-29.186v-0.8l1.202-0.229c2.46-0.457,2.519-1.144,1.83-4.578l-1.087-5.15h-7.038l-0.746,3.893
	c-0.859,4.406-0.399,5.492,1.316,5.836l1.2,0.229v0.8h-7.955v-0.8l0.972-0.286c1.547-0.458,1.945-1.374,2.748-5.266l6.98-33.304
	h1.718l7.322,34.392c0.746,3.548,1.03,4.29,3.091,4.29c1.771,0,2.403-0.916,2.403-2.63V13.834c0-1.602-0.514-2.117-1.66-2.404
	l-1.26-0.343v-0.8h11.33v0.858l-1.545,0.343c-1.144,0.23-1.66,0.744-1.66,2.346L447.936,48.57z M423.901,37.641h6.523l-3.317-16.25
	L423.901,37.641z M464.701,47.195c0,1.546-1.145,2.701-2.519,2.701s-2.518-1.146-2.518-2.701c0-1.555,1.144-2.699,2.518-2.699
	S464.701,45.641,464.701,47.195z"/>
</svg>
