<?xml version="1.0" encoding="utf-8"?>
<!-- Generator: Adobe Illustrator 16.0.0, SVG Export Plug-In . SVG Version: 6.00 Build 0)  -->
<!DOCTYPE svg PUBLIC "-//W3C//DTD SVG 1.1//EN" "http://www.w3.org/Graphics/SVG/1.1/DTD/svg11.dtd">
<svg version="1.1" id="Layer_1" xmlns="http://www.w3.org/2000/svg" xmlns:xlink="http://www.w3.org/1999/xlink" x="0px" y="0px"
	 width="106.388px" height="12.018px" viewBox="6.806 23.991 106.388 12.018" enable-background="new 6.806 23.991 106.388 12.018"
	 xml:space="preserve">
<path fill="#5B6D7E" d="M16.387,24.349h1.603v4.532h4.065v-4.532l1.208-0.009v11.144h-1.208v-5.986H17.99v5.987h-1.603V24.349z
	 M34.057,24.372h1.354l5.695,7.237v-7.237h0.868V35.65l-7.043-9.084v8.94h-0.896L34.057,24.372z M43.483,24.372h4.062l0.58,1.29
	c0,0-0.68-0.677-1.956-0.677h-0.984v3.922h1.651c0.838,0,0.963-0.082,1.289-0.408v1.654c0,0-0.365-0.559-1.289-0.559h-1.651v5.156
	h2.295c2.224,0,3.359-0.924,3.359-0.924l-0.816,1.676l-6.561,0.001L43.483,24.372z M99.941,24.372h4.506l0.58,1.29
	c0,0-0.637-0.677-2.05-0.677h-1.483v3.922h1.8c0.654,0,0.856-0.059,1.108-0.31v1.319c0,0-0.185-0.386-1.108-0.386h-1.798v5.223
	h1.088c1.96,0,2.718-0.59,2.718-0.59l-0.993,1.342l-4.386,0.001L99.941,24.372z M24.79,24.364h4.506l0.581,1.289
	c0,0-0.637-0.677-2.05-0.677h-1.482v3.922h1.799c0.654,0,0.857-0.059,1.108-0.31v1.319c0,0-0.184-0.386-1.108-0.386h-1.799v5.222
	h1.087c1.96,0,2.718-0.59,2.718-0.59l-0.993,1.342l-4.386,0.002L24.79,24.364z M14.806,24.372H7.415L6.806,25.75
	c0,0,0.668-0.677,2.153-0.677l1.332-0.001l0.003,10.409l1.584,0.001l0.002-10.409h1.385c1.484,0,2.153,0.677,2.153,0.677
	L14.806,24.372z M48.625,24.372h1.716l3.701,8.163l0.776-1.717l-2.835-6.446h1.642l2.06,4.357l1.97-4.357h0.836l-2.343,5.537
	l1.194,2.626l3.597-8.163h0.999l-4.954,11.222l-1.716-3.641l-1.671,3.656L48.625,24.372z M77.41,23.991
	c3.834,0,6.162,2.702,6.162,5.704c0,3.877-2.104,6.313-6.071,6.313s-6.335-2.999-6.335-5.975
	C71.166,26.674,73.668,23.991,77.41,23.991L77.41,23.991z M72.811,29.786c0,2.606,1.468,5.456,4.803,5.456
	c3.082,0,4.307-2.525,4.307-5.389c0-2.296-1.555-5.208-4.577-5.208C75.227,24.645,72.811,26.315,72.811,29.786L72.811,29.786z
	 M84.894,24.372h2.611c1.374,0,2.522,0.796,2.522,2.269c0,1.737-1.278,2.186-2.149,2.462c1.583,0.264,2.164,1.022,2.164,3.149
	c0,2.121,0.54,2.909,1.026,2.909c0.375,0,0.666-0.247,0.771-0.417l0.217,0.148c-0.063,0.1-0.502,0.791-1.521,0.791
	c-1.016,0-1.791-0.939-1.791-3.148c0-3.193-0.863-3.253-1.553-3.253v-0.239c0.021-0.005,1.478-0.316,1.478-2.104
	c0-1.69-1.015-1.955-1.433-1.955H86.49v10.521h-1.617L84.894,24.372z M106.031,24.372h2.611c1.374,0,2.521,0.796,2.521,2.269
	c0,1.737-1.277,2.186-2.148,2.462c1.583,0.264,2.164,1.022,2.164,3.149c0,2.121,0.539,2.909,1.025,2.909
	c0.375,0,0.668-0.247,0.771-0.417l0.217,0.148c-0.063,0.1-0.502,0.791-1.521,0.791c-1.015,0-1.791-0.939-1.791-3.148
	c0-3.193-0.863-3.253-1.552-3.253v-0.239c0.021-0.005,1.478-0.316,1.478-2.104c0-1.69-1.016-1.955-1.433-1.955h-0.746v10.521h-1.618
	L106.031,24.372z M97.303,32.252c0,2.121,0.54,2.909,1.027,2.909c0.375,0,0.666-0.247,0.77-0.417l0.219,0.148
	c-0.064,0.1-0.504,0.791-1.522,0.791c-1.015,0-1.79-0.94-1.79-3.148v-0.447c0-1.317-0.065-2.344-0.293-3.017
	c-0.178-0.521-0.816-0.909-1.092-0.909h-0.344v7.342H92.66l0.021-11.133h1.596v3.283l2.926-3.283h1.044l-3.071,3.448
	c1.582,0.264,2.127,1.444,2.127,3.998V32.252z M68.872,35.505v-5.747l3.102-5.386h-1.003l-2.944,5.113l-2.945-5.113h-1.003
	l3.102,5.386v5.747H68.872z"/>
</svg>
