<?xml version="1.0" encoding="utf-8"?>
<!-- Generator: Adobe Illustrator 16.0.0, SVG Export Plug-In . SVG Version: 6.00 Build 0)  -->
<!DOCTYPE svg PUBLIC "-//W3C//DTD SVG 1.1//EN" "http://www.w3.org/Graphics/SVG/1.1/DTD/svg11.dtd">
<svg version="1.1" id="Layer_1" xmlns="http://www.w3.org/2000/svg" xmlns:xlink="http://www.w3.org/1999/xlink" x="0px" y="0px"
	 width="106.382px" height="19.281px" viewBox="5.694 20.359 106.382 19.281" enable-background="new 5.694 20.359 106.382 19.281"
	 xml:space="preserve">
<g transform="matrix(.335907 0 0 .335907 -.251462 15.824705)">
	<circle fill="#5B6D7E" cx="46.4" cy="42.2" r="28.7"/>
	<g>
		<path fill="#5B6D7E" d="M87.8,46.602V26.2h9.1v17.701c0,3.497,0.4,6.899,5,6.899c4.599,0,5-3.401,5-6.899V26.2h9.1v20.3
			c0,7.899-5,12.202-14.1,12.202C92.6,58.8,87.8,54.399,87.8,46.602z M118.4,54.099L122.8,48c1.599,2,4.4,3.701,7.499,3.701
			c2.4,0,3.8-1,3.8-2.901c0-2.198-1.999-2.901-5.499-3.902c-4.601-1.398-8.7-3.798-8.7-9.297c0-6,4.999-10.101,12-10.101
			c4.9,0,8.499,1.5,10.899,3.701L138.7,35.3c-1.3-1.5-3.5-2.8-6.3-2.8c-2.4,0-3.4,1-3.4,2.199c0,2,2.4,2.5,5,3.4
			c5.2,1.6,9.2,4,9.2,9.901c0,6.099-4.4,10.702-12.401,10.702C124.899,58.8,120.401,56.3,118.4,54.099z"/>
		<g>
			<path id="B" fill="#5B6D7E" d="M155.399,26.2H165.4L177.3,58.1h-9.5l-1.5-4.599h-12l-1.5,4.599h-9.3
				C143.6,58.1,155.399,26.2,155.399,26.2z M164,46.299l-2.5-7.7c-0.5-1.499-0.9-3.4-1.1-4.8H160.1c-0.201,1.4-0.6,3.301-1.1,4.8
				l-2.5,7.7H164z"/>
		</g>
		<path fill="#5B6D7E" d="M190.498,33.6h-7.899v-7.4H207.5v7.4h-7.902V58.1h-9.1V33.6z M208.099,42.2c0-7.9,5.599-16.6,17.502-16.6
			c11.899,0,17.502,8.8,17.502,16.6c0,7.8-5.602,16.501-17.502,16.501C213.698,58.8,208.099,50.102,208.099,42.2z M233.799,42.2
			c0-5.7-3.698-8.7-8.198-8.7c-4.402,0-8.1,3-8.1,8.7c0,5.698,3.698,8.6,8.1,8.6C230.002,50.8,233.799,47.898,233.799,42.2z
			 M246.399,26.2h11.801c11.3,0,17.702,6.001,17.702,16c0,9.8-6.599,16.001-17.702,16.001h-11.801V26.2z M255.6,50.8h2
			c5.899,0,8.998-2.8,8.998-8.6c0-5.8-3.099-8.6-8.998-8.6h-2V50.8z"/>
		<g>
			<path id="B_1_" fill="#5B6D7E" d="M286.501,26.2h9.998l11.899,31.9h-9.498l-1.5-4.599h-12.001l-1.5,4.599h-9.3
				C274.698,58.1,286.501,26.2,286.501,26.2z M295.101,46.299l-2.5-7.7c-0.5-1.499-0.901-3.4-1.099-4.8h-0.302
				c-0.198,1.4-0.599,3.301-1.099,4.8l-2.5,7.7H295.101z"/>
		</g>
		<path fill="#5B6D7E" d="M312.8,46.799L300.898,26.3h10.001l4.303,7.899c0.898,1.701,2.198,4.201,2.5,5.9h0.198
			c0.302-1.699,1.5-4.199,2.5-5.9l4.3-7.899h9.702l-11.902,20.499v11.402h-9.6V46.799H312.8z"/>
	</g>
</g>
</svg>
