<?xml version="1.0" encoding="utf-8"?>
<!-- Generator: Adobe Illustrator 16.0.0, SVG Export Plug-In . SVG Version: 6.00 Build 0)  -->
<!DOCTYPE svg PUBLIC "-//W3C//DTD SVG 1.1//EN" "http://www.w3.org/Graphics/SVG/1.1/DTD/svg11.dtd">
<svg version="1.1" id="svg75605" xmlns:svg="http://www.w3.org/2000/svg"
	 xmlns="http://www.w3.org/2000/svg" xmlns:xlink="http://www.w3.org/1999/xlink" x="0px" y="0px" width="2028.939px"
	 height="546.557px" viewBox="8.858 690.857 2028.939 546.557" enable-background="new 8.858 690.857 2028.939 546.557"
	 xml:space="preserve">
<g>
	<g id="layer1" transform="translate(-438.0542,46.00164)">
		<g id="g80775" transform="translate(8.858237,8.857665)">
			<path id="path78744" fill="#94ADD3" d="M725.468,713.231c0-28.962,24.687-52.821,54.477-52.821c9.93,0,19.308,2.758,27.445,7.31
				c-4.689,3.172-9.24,6.481-13.654,9.93c-4.137-1.517-8.688-2.345-13.791-2.345c-24.549,0-37.927,17.93-37.927,37.927
				c0,4.827,0.966,9.24,2.345,13.516c-2.482,3.034-4.827,6.068-7.034,9.378c-1.241,1.793-2.482,3.586-3.723,5.379
				C728.503,733.366,725.468,723.851,725.468,713.231"/>
			<path id="path78746" fill="#231F20" d="M725.468,713.231c0-28.962,24.687-52.821,54.477-52.821c9.93,0,19.308,2.758,27.445,7.31
				c-4.689,3.172-9.24,6.481-13.654,9.93c-4.137-1.517-8.688-2.345-13.791-2.345c-24.549,0-37.927,17.93-37.927,37.927
				c0,4.827,0.966,9.24,2.345,13.516c-2.482,3.034-4.827,6.068-7.034,9.378c-1.241,1.793-2.482,3.586-3.723,5.379
				C728.503,733.366,725.468,723.851,725.468,713.231"/>
			<path id="path78748" fill="#94ADD3" d="M740.639,750.192c1.931-2.621,3.586-5.379,5.654-8c1.241-1.793,2.482-3.31,3.724-5.103
				c6.62,8.551,17.102,14.067,29.928,14.067c22.342,0,37.65-17.102,37.65-37.927c0-11.723-4.688-22.894-13.653-30.065
				c4.138-2.896,8.413-5.93,12.551-8.688c10.895,9.653,17.791,23.445,17.791,38.754c0,30.065-24.411,52.821-54.339,52.821
				C764.499,766.052,750.569,760.122,740.639,750.192"/>
			<path id="path78750" fill="#231F20" d="M740.639,750.192c1.931-2.621,3.586-5.379,5.654-8c1.241-1.793,2.482-3.31,3.724-5.103
				c6.62,8.551,17.102,14.067,29.928,14.067c22.342,0,37.65-17.102,37.65-37.927c0-11.723-4.688-22.894-13.653-30.065
				c4.138-2.896,8.413-5.93,12.551-8.688c10.895,9.653,17.791,23.445,17.791,38.754c0,30.065-24.411,52.821-54.339,52.821
				C764.499,766.052,750.569,760.122,740.639,750.192"/>
			<path id="path78752" fill="#231F20" d="M720.779,850.732c0,15.998-9.24,29.789-23.583,35.444
				c-0.138,2.896-0.138,5.792-0.138,8.688c0,2.345,0,4.689,0,7.033c23.169-5.93,40.271-25.928,40.271-51.166
				c0-18.48-10.067-34.754-24.962-44.271c-1.793,4.827-3.31,9.792-4.827,14.757C716.228,828.39,720.779,839.148,720.779,850.732"/>
			<path id="path78754" fill="#94ADD3" d="M628.652,850.87c0-29.101,24.549-52.96,54.338-52.96c6.758,0,13.516,1.379,19.584,3.724
				c-1.793,4.551-3.172,9.24-4.551,13.93c-4.551-1.793-9.516-2.621-15.033-2.621c-24.411,0-37.927,17.93-37.927,37.928
				c0,20.687,15.447,37.788,37.927,37.788l3.31-0.138c-0.138,2.068-0.138,4.275-0.138,6.344c0,2.896,0,5.793,0.138,8.688
				l-3.31,0.138C652.925,903.69,628.652,880.935,628.652,850.87"/>
			<path id="path78756" fill="#231F20" d="M628.652,850.87c0-29.101,24.549-52.96,54.338-52.96c6.758,0,13.516,1.379,19.584,3.724
				c-1.793,4.551-3.172,9.24-4.551,13.93c-4.551-1.793-9.516-2.621-15.033-2.621c-24.411,0-37.927,17.93-37.927,37.928
				c0,20.687,15.447,37.788,37.927,37.788l3.31-0.138c-0.138,2.068-0.138,4.275-0.138,6.344c0,2.896,0,5.793,0.138,8.688
				l-3.31,0.138C652.925,903.69,628.652,880.935,628.652,850.87"/>
			<path id="path78758" fill="#94ADD3" d="M731.951,1025.607c16.963-4.275,27.858-19.17,27.858-36.685
				c0-19.86-13.516-37.789-37.926-37.789c-6.758,0-12.688,1.517-17.791,4c-1.241-4.966-2.207-9.931-3.172-14.896
				c6.482-2.482,13.516-3.999,20.963-3.999c29.79,0,54.476,23.721,54.476,52.684c0,23.721-15.032,42.891-36.134,49.925
				C737.329,1034.434,734.571,1030.159,731.951,1025.607"/>
			<path id="path78760" fill="#231F20" d="M731.951,1025.607c16.963-4.275,27.858-19.17,27.858-36.685
				c0-19.86-13.516-37.789-37.926-37.789c-6.758,0-12.688,1.517-17.791,4c-1.241-4.966-2.207-9.931-3.172-14.896
				c6.482-2.482,13.516-3.999,20.963-3.999c29.79,0,54.476,23.721,54.476,52.684c0,23.721-15.032,42.891-36.134,49.925
				C737.329,1034.434,734.571,1030.159,731.951,1025.607"/>
			<path id="path78762" fill="#94ADD3" d="M667.545,988.923c0-17.791,9.378-33.652,23.308-43.168
				c1.103,5.517,2.344,10.896,3.585,16.273c-6.758,7.034-10.206,16.688-10.206,26.895c0,20.273,14.481,36.961,36.134,37.926
				c2.62,4.965,5.517,9.792,8.688,14.481c-2.345,0.414-4.827,0.552-7.171,0.552C691.955,1041.882,667.545,1019.126,667.545,988.923"
				/>
			<path id="path78764" fill="#231F20" d="M667.545,988.923c0-17.791,9.378-33.652,23.308-43.168
				c1.103,5.517,2.344,10.896,3.585,16.273c-6.758,7.034-10.206,16.688-10.206,26.895c0,20.273,14.481,36.961,36.134,37.926
				c2.62,4.965,5.517,9.792,8.688,14.481c-2.345,0.414-4.827,0.552-7.171,0.552C691.955,1041.882,667.545,1019.126,667.545,988.923"
				/>
			<path id="path78766" fill="#2A529E" d="M1149.97,1106.288c-50.614,41.099-114.47,63.717-180.393,63.717
				c-67.44,0-132.674-23.584-183.702-66.613l-8.413,9.516c53.373,44.961,121.641,69.647,192.115,69.647
				c68.957,0,135.846-23.722,188.668-66.751L1149.97,1106.288"/>
			<path id="path78768" fill="#94ADD3" d="M923.652,1002.575v-64.13h16.55v61.234c0,14.067,4.827,27.307,22.894,27.307
				c18.205,0,22.895-13.239,22.895-27.307v-61.234h16.55v64.13c0,22.205-14.067,39.444-39.444,39.444
				C937.719,1042.02,923.652,1024.78,923.652,1002.575"/>
			<path id="path78770" fill="#231F20" d="M923.652,1002.575v-64.13h16.55v61.234c0,14.067,4.827,27.307,22.894,27.307
				c18.205,0,22.895-13.239,22.895-27.307v-61.234h16.55v64.13c0,22.205-14.067,39.444-39.444,39.444
				C937.719,1042.02,923.652,1024.78,923.652,1002.575"/>
			<path id="path78772" fill="#94ADD3" d="M982.679,763.845V662.478h16.55v87.162h45.513v14.205H982.679"/>
			<path id="path78774" fill="#231F20" d="M982.679,763.845V662.478h16.55v87.162h45.513v14.205H982.679"/>
			<path id="path78776" fill="#94ADD3" d="M438.054,901.761V800.255h59.441v14.619h-42.753v23.997h41.512v14.618h-41.512v33.514
				h42.753v14.758H438.054"/>
			<path id="path78778" fill="#231F20" d="M438.054,901.761V800.255h59.441v14.619h-42.753v23.997h41.512v14.618h-41.512v33.514
				h42.753v14.758H438.054"/>
			<path id="path78780" fill="#94ADD3" d="M788.358,834.872v66.889h-16.55V795.015l69.784,71.301v-66.061h16.55V905.76
				L788.358,834.872"/>
			<path id="path78782" fill="#231F20" d="M788.358,834.872v66.889h-16.55V795.015l69.784,71.301v-66.061h16.55V905.76
				L788.358,834.872"/>
			<path id="path78784" fill="#94ADD3" d="M1187.759,901.761h16.55V800.255h-16.55V901.761z"/>
			<path id="path78786" fill="#231F20" d="M1187.759,901.761h16.55V800.255h-16.55V901.761z"/>
			<path id="path78788" fill="#94ADD3" d="M584.796,1039.675V938.308h53.787v14.619h-37.237v24.135h35.996v14.619h-35.996v47.994
				H584.796"/>
			<path id="path78790" fill="#231F20" d="M584.796,1039.675V938.308h53.787v14.619h-37.237v24.135h35.996v14.619h-35.996v47.994
				H584.796"/>
			<path id="path78792" fill="#94ADD3" d="M637.341,691.854l-35.72,76.267l-28.411-105.643h16.55l16.274,63.441h0.276l31.031-65.51
				l31.031,65.51h0.276l16.274-63.441h16.55l-28.41,105.643L637.341,691.854"/>
			<path id="path78794" fill="#231F20" d="M637.341,691.854l-35.72,76.267l-28.411-105.643h16.55l16.274,63.441h0.276l31.031-65.51
				l31.031,65.51h0.276l16.274-63.441h16.55l-28.41,105.643L637.341,691.854"/>
			<path id="path78796" fill="#94ADD3" d="M1056.05,838.319h-0.275l-16.274,63.441h-16.412l28.411-105.644l35.72,76.267
				l35.582-76.267l28.41,105.644h-16.412l-16.273-63.441h-0.276l-31.03,65.51L1056.05,838.319"/>
			<path id="path78798" fill="#231F20" d="M1056.05,838.319h-0.275l-16.274,63.441h-16.412l28.411-105.644l35.72,76.267
				l35.582-76.267l28.41,105.644h-16.412l-16.273-63.441h-0.276l-31.03,65.51L1056.05,838.319"/>
			<path id="path78800" fill="#94ADD3" d="M1065.153,976.372h-0.276l-16.273,63.44h-16.55l28.687-105.78l35.582,76.404
				l35.582-76.404l28.41,105.78h-16.55l-15.998-63.44h-0.414l-31.03,65.647L1065.153,976.372"/>
			<path id="path78802" fill="#231F20" d="M1065.153,976.372h-0.276l-16.273,63.44h-16.55l28.687-105.78l35.582,76.404
				l35.582-76.404l28.41,105.78h-16.55l-15.998-63.44h-0.414l-31.03,65.647L1065.153,976.372"/>
			<path id="path78804" fill="#94ADD3" d="M870.555,1039.675l-30.617-42.892h-11.31v42.892h-16.411V938.308h27.444
				c9.103,0,19.86,0.138,28.272,4.689c8.689,4.965,13.654,14.48,13.654,24.272c0,14.481-9.93,26.479-24.963,28.411l32.823,43.994
				H870.555 M828.629,983.544h7.861c13.24,0,28.824,0.275,28.824-15.86c0-15.723-16.825-15.446-29.514-15.446h-7.172V983.544"/>
			<path id="path78806" fill="#231F20" d="M870.555,1039.675l-30.617-42.892h-11.31v42.892h-16.411V938.308h27.444
				c9.103,0,19.86,0.138,28.272,4.689c8.689,4.965,13.654,14.48,13.654,24.272c0,14.481-9.93,26.479-24.963,28.411l32.823,43.994
				H870.555 M828.629,983.544h7.861c13.24,0,28.824,0.275,28.824-15.86c0-15.723-16.825-15.446-29.514-15.446h-7.172V983.544"/>
			<path id="path78808" fill="#94ADD3" d="M927.376,763.845l-30.479-42.891h-11.31v42.891h-16.55V662.478h27.445
				c9.24,0,20.136,0.139,28.272,4.689c8.688,4.965,13.653,14.619,13.653,24.273c0,14.48-9.93,26.617-24.962,28.271l32.823,44.133
				H927.376 M885.588,707.853h7.724c13.239,0,28.962,0.137,28.962-15.861s-16.825-15.584-29.651-15.584h-7.034V707.853"/>
			<path id="path78810" fill="#231F20" d="M927.376,763.845l-30.479-42.891h-11.31v42.891h-16.55V662.478h27.445
				c9.24,0,20.136,0.139,28.272,4.689c8.688,4.965,13.653,14.619,13.653,24.273c0,14.48-9.93,26.617-24.962,28.271l32.823,44.133
				H927.376 M885.588,707.853h7.724c13.239,0,28.962,0.137,28.962-15.861s-16.825-15.584-29.651-15.584h-7.034V707.853"/>
			<path id="path78812" fill="#94ADD3" d="M1074.255,763.845V662.478h27.858c31.858,0,58.338,15.86,58.338,50.201
				c0,35.03-25.928,51.166-58.752,51.166H1074.255 M1090.943,749.64h9.654c22.204,0,43.167-8.137,43.167-36.961
				c0-29.1-20.963-36.271-43.167-36.271h-9.654V749.64"/>
			<path id="path78814" fill="#231F20" d="M1074.255,763.845V662.478h27.858c31.858,0,58.338,15.86,58.338,50.201
				c0,35.03-25.928,51.166-58.752,51.166H1074.255 M1090.943,749.64h9.654c22.204,0,43.167-8.137,43.167-36.961
				c0-29.1-20.963-36.271-43.167-36.271h-9.654V749.64"/>
			<path id="path78816" fill="#94ADD3" d="M1242.374,850.87c0-28.963,24.549-52.822,54.338-52.822
				c9.792,0,19.032,2.621,27.031,7.034l-8.551,12.136c-5.103-2.619-11.309-4.275-18.48-4.275c-24.41,0-37.788,18.067-37.788,37.928
				c0,20.824,15.308,37.926,37.788,37.926c6.896,0,13.24-1.654,18.48-4.413l8.689,12.412c-8,4.413-17.24,6.896-27.17,6.896
				C1266.784,903.69,1242.374,880.935,1242.374,850.87"/>
			<path id="path78818" fill="#231F20" d="M1242.374,850.87c0-28.963,24.549-52.822,54.338-52.822
				c9.792,0,19.032,2.621,27.031,7.034l-8.551,12.136c-5.103-2.619-11.309-4.275-18.48-4.275c-24.41,0-37.788,18.067-37.788,37.928
				c0,20.824,15.308,37.926,37.788,37.926c6.896,0,13.24-1.654,18.48-4.413l8.689,12.412c-8,4.413-17.24,6.896-27.17,6.896
				C1266.784,903.69,1242.374,880.935,1242.374,850.87"/>
			<path id="path78820" fill="#94ADD3" d="M529.216,850.87c0-28.963,24.549-52.822,54.338-52.822c9.654,0,19.032,2.621,26.893,7.034
				l-8.413,12.136c-5.241-2.619-11.447-4.275-18.48-4.275c-24.411,0-37.927,18.067-37.927,37.928
				c0,20.824,15.447,37.926,37.927,37.926c6.758,0,13.102-1.654,18.48-4.413l8.688,12.412c-8.137,4.413-17.239,6.896-27.169,6.896
				C553.489,903.69,529.216,880.935,529.216,850.87"/>
			<path id="path78822" fill="#231F20" d="M529.216,850.87c0-28.963,24.549-52.822,54.338-52.822c9.654,0,19.032,2.621,26.893,7.034
				l-8.413,12.136c-5.241-2.619-11.447-4.275-18.48-4.275c-24.411,0-37.927,18.067-37.927,37.928
				c0,20.824,15.447,37.926,37.927,37.926c6.758,0,13.102-1.654,18.48-4.413l8.688,12.412c-8.137,4.413-17.239,6.896-27.169,6.896
				C553.489,903.69,529.216,880.935,529.216,850.87"/>
			<path id="path78824" fill="#2A529E" d="M1147.488,1103.529c-49.787,40.547-112.814,62.89-177.91,62.89
				c-74.198,0-143.983-28.272-196.528-79.577c-52.546-51.305-81.508-119.435-81.508-191.977c0-56.131,17.377-109.918,50.201-155.705
				c32.134-44.686,76.542-78.612,128.536-98.059l-1.931-5.103c-53.098,19.722-98.471,54.339-131.157,99.988
				c-33.513,46.753-51.166,101.644-51.166,158.878c0,74.061,29.514,143.569,83.024,195.839
				c53.511,52.408,124.813,81.232,200.528,81.232c66.475,0,130.743-22.756,181.634-64.269L1147.488,1103.529"/>
			<path id="path78826" fill="#94ADD3" d="M892.897,850.87c0-28.963,24.687-52.822,54.339-52.822
				c29.789,0,54.476,23.859,54.476,52.822c0,30.064-24.41,52.82-54.476,52.82C917.308,903.69,892.897,880.935,892.897,850.87
				 M909.447,850.87c0,20.824,15.446,37.926,37.789,37.926c22.479,0,37.788-17.102,37.788-37.926
				c0-19.86-13.378-37.928-37.788-37.928C922.825,812.942,909.447,831.01,909.447,850.87"/>
			<path id="path78828" fill="#231F20" d="M892.897,850.87c0-28.963,24.687-52.822,54.339-52.822
				c29.789,0,54.476,23.859,54.476,52.822c0,30.064-24.41,52.82-54.476,52.82C917.308,903.69,892.897,880.935,892.897,850.87
				 M909.447,850.87c0,20.824,15.446,37.926,37.789,37.926c22.479,0,37.788-17.102,37.788-37.926
				c0-19.86-13.378-37.928-37.788-37.928C922.825,812.942,909.447,831.01,909.447,850.87"/>
		</g>
	</g>
	<g>
		<path fill="#231F20" d="M1020.276,760.574h127.095v19.386h-53.037v132.976h-21.891V779.96h-52.167V760.574z"/>
		<path fill="#231F20" d="M1217.182,864.581h-70.463c0.507,9.584,3.72,17.207,9.638,22.87c5.917,5.663,13.56,8.495,22.925,8.495
			c13.069,0,25.12-4.065,36.157-12.197v19.385c-6.099,4.066-12.143,6.971-18.133,8.713c-5.989,1.742-13.015,2.613-21.073,2.613
			c-11.037,0-19.968-2.287-26.791-6.861c-6.826-4.574-12.29-10.727-16.391-18.459c-4.103-7.732-6.153-16.68-6.153-26.846
			c0-15.248,4.318-27.645,12.96-37.192c8.64-9.546,19.856-14.321,33.652-14.321c13.286,0,23.887,4.647,31.801,13.94
			c7.913,9.294,11.871,21.745,11.871,37.354V864.581z M1147.154,852.71h50.424c-0.509-7.913-2.869-14.012-7.079-18.297
			c-4.212-4.283-9.875-6.426-16.989-6.426c-7.116,0-12.943,2.143-17.479,6.426C1151.491,838.698,1148.532,844.797,1147.154,852.71z"
			/>
		<path fill="#231F20" d="M1313.782,889.521v19.604c-9.948,3.703-19.677,5.555-29.188,5.555c-15.683,0-28.189-4.646-37.519-13.941
			c-9.33-9.292-13.994-21.743-13.994-37.354c0-15.755,4.536-28.46,13.613-38.118c9.075-9.654,21.019-14.484,35.83-14.484
			c5.154,0,9.783,0.49,13.886,1.471c4.102,0.98,9.165,2.814,15.192,5.5v21.127c-10.02-6.388-19.313-9.583-27.88-9.583
			c-8.931,0-16.265,3.142-21.999,9.421c-5.736,6.28-8.604,14.285-8.604,24.014c0,10.237,3.104,18.369,9.312,24.395
			c6.207,6.027,14.574,9.04,25.103,9.04C1295.159,896.164,1303.907,893.95,1313.782,889.521z"/>
		<path fill="#231F20" d="M1335.89,760.792h19.821v65.127c8.277-10.092,18.55-15.139,30.82-15.139c6.68,0,12.669,1.672,17.97,5.01
			c5.3,3.34,9.239,7.95,11.816,13.832c2.577,5.881,3.866,14.631,3.866,26.246v57.067h-19.82v-61.968
			c0-7.333-1.797-13.232-5.392-17.697c-3.594-4.466-8.331-6.698-14.212-6.698c-4.356,0-8.459,1.126-12.307,3.376
			c-3.85,2.252-8.097,5.99-12.742,11.217v71.771h-19.821V760.792z"/>
		<path fill="#231F20" d="M1467.668,812.741v12.742c8.857-9.803,18.912-14.703,30.167-14.703c6.244,0,12.052,1.617,17.426,4.847
			c5.372,3.231,9.456,7.661,12.252,13.286c2.794,5.628,4.192,14.539,4.192,26.737v57.285h-19.82v-57.067
			c0-10.237-1.563-17.551-4.684-21.945c-3.122-4.392-8.35-6.588-15.683-6.588c-9.366,0-17.316,4.683-23.851,14.049v71.552h-20.257
			V812.741H1467.668z"/>
		<path fill="#231F20" d="M1607.287,812.522c15.246,0,27.916,4.92,38.008,14.758c10.092,9.839,15.139,22.199,15.139,37.082
			c0,14.449-5.119,26.448-15.356,35.994c-10.237,9.549-23.125,14.322-38.662,14.322c-15.029,0-27.591-4.848-37.682-14.539
			c-10.093-9.693-15.138-21.799-15.138-36.321c0-14.665,5.1-26.882,15.301-36.647
			C1579.097,817.407,1591.894,812.522,1607.287,812.522z M1606.197,830.384c-9.512,0-17.316,3.123-23.415,9.366
			c-6.099,6.245-9.148,14.195-9.148,23.851c0,9.584,3.121,17.408,9.366,23.469c6.244,6.064,14.268,9.095,24.068,9.095
			c9.729,0,17.698-3.067,23.905-9.203c6.208-6.134,9.312-13.994,9.312-23.578c0-9.511-3.231-17.388-9.692-23.633
			C1624.13,833.507,1615.999,830.384,1606.197,830.384z"/>
		<path fill="#231F20" d="M1682.868,760.792h19.821v152.144h-19.821V760.792z"/>
		<path fill="#231F20" d="M1779.252,812.522c15.246,0,27.916,4.92,38.008,14.758c10.092,9.839,15.139,22.199,15.139,37.082
			c0,14.449-5.119,26.448-15.356,35.994c-10.237,9.549-23.125,14.322-38.662,14.322c-15.029,0-27.591-4.848-37.682-14.539
			c-10.093-9.693-15.138-21.799-15.138-36.321c0-14.665,5.1-26.882,15.301-36.647
			C1751.062,817.407,1763.858,812.522,1779.252,812.522z M1778.162,830.384c-9.512,0-17.316,3.123-23.415,9.366
			c-6.099,6.245-9.148,14.195-9.148,23.851c0,9.584,3.121,17.408,9.366,23.469c6.244,6.064,14.268,9.095,24.068,9.095
			c9.729,0,17.698-3.067,23.905-9.203c6.208-6.134,9.312-13.994,9.312-23.578c0-9.511-3.231-17.388-9.692-23.633
			C1796.095,833.507,1787.964,830.384,1778.162,830.384z"/>
		<path fill="#231F20" d="M1849.279,847.374c0-10.674,3.901-19.113,11.707-25.322c7.804-6.207,18.46-9.311,31.965-9.311h41.275
			v15.465h-20.257c3.921,3.994,6.644,7.623,8.168,10.891c1.525,3.268,2.287,7.008,2.287,11.217c0,5.229-1.488,10.365-4.465,15.41
			c-2.978,5.048-6.807,8.914-11.49,11.6c-4.683,2.687-12.36,4.829-23.033,6.426c-7.479,1.088-11.218,3.666-11.218,7.732
			c0,2.324,1.397,4.229,4.193,5.717c2.794,1.489,7.858,3.033,15.192,4.629c12.269,2.688,20.165,4.792,23.688,6.316
			c3.521,1.525,6.697,3.703,9.529,6.535c4.792,4.791,7.188,10.816,7.188,18.078c0,9.511-4.23,17.098-12.688,22.762
			c-8.459,5.663-19.767,8.494-33.925,8.494c-14.304,0-25.721-2.85-34.251-8.549c-8.532-5.701-12.797-13.342-12.797-22.925
			c0-13.577,8.386-22.326,25.157-26.247c-6.681-4.283-10.02-8.53-10.02-12.742c0-3.193,1.434-6.099,4.303-8.713
			c2.867-2.613,6.733-4.536,11.599-5.771C1856.647,872.53,1849.279,861.967,1849.279,847.374z M1881.843,917.618
			c-6.682,0-12.144,1.416-16.391,4.248c-4.248,2.832-6.371,6.461-6.371,10.891c0,10.309,9.293,15.465,27.88,15.465
			c8.784,0,15.591-1.29,20.42-3.866c4.828-2.578,7.242-6.227,7.242-10.945c0-4.647-3.049-8.44-9.147-11.381
			C1899.376,919.089,1891.498,917.618,1881.843,917.618z M1886.525,829.948c-5.374,0-9.948,1.815-13.723,5.445
			c-3.775,3.631-5.663,7.988-5.663,13.068c0,5.156,1.852,9.421,5.555,12.797c3.702,3.377,8.386,5.064,14.049,5.064
			c5.59,0,10.254-1.724,13.994-5.174c3.739-3.447,5.609-7.748,5.609-12.904c0-5.229-1.889-9.584-5.663-13.069
			C1896.907,831.69,1892.188,829.948,1886.525,829.948z"/>
		<path fill="#231F20" d="M2015.559,812.741h22.239l-70.992,151.271h-22.124l34.012-72.594l-38.694-78.678h22.586l27.057,56.596
			L2015.559,812.741z"/>
		<path fill="#231F20" d="M1032.039,1111.545V959.184h48.245c14.521,0,26.101,3.921,34.742,11.762
			c8.639,7.842,12.96,18.37,12.96,31.583c0,8.859-2.216,16.7-6.644,23.524c-4.43,6.825-10.493,11.78-18.188,14.866
			c-7.697,3.086-18.732,4.628-33.108,4.628h-16.118v65.998H1032.039z M1076.473,978.569h-22.544v47.592h23.851
			c8.857,0,15.683-2.086,20.475-6.262c4.792-4.174,7.188-10.146,7.188-17.915C1105.442,986.375,1095.785,978.569,1076.473,978.569z"
			/>
		<path fill="#231F20" d="M1154.45,969.203c3.268,0,6.062,1.126,8.386,3.376c2.323,2.252,3.485,5.01,3.485,8.277
			c0,3.195-1.162,5.954-3.485,8.276c-2.324,2.325-5.118,3.485-8.386,3.485c-3.049,0-5.736-1.18-8.059-3.539
			c-2.325-2.359-3.485-5.101-3.485-8.223c0-3.05,1.16-5.754,3.485-8.113C1148.714,970.384,1151.401,969.203,1154.45,969.203z
			 M1144.648,1011.351h19.821v100.194h-19.821V1011.351z"/>
		<path fill="#231F20" d="M1241.032,1011.133c15.246,0,27.916,4.919,38.008,14.757c10.092,9.839,15.139,22.2,15.139,37.083
			c0,14.448-5.119,26.447-15.356,35.993c-10.237,9.549-23.125,14.321-38.662,14.321c-15.029,0-27.591-4.846-37.682-14.539
			c-10.093-9.692-15.138-21.798-15.138-36.32c0-14.665,5.1-26.882,15.301-36.647
			C1212.842,1016.017,1225.639,1011.133,1241.032,1011.133z M1239.942,1028.993c-9.512,0-17.316,3.123-23.415,9.366
			c-6.099,6.245-9.148,14.195-9.148,23.851c0,9.584,3.121,17.408,9.366,23.47c6.244,6.063,14.268,9.094,24.068,9.094
			c9.729,0,17.698-3.066,23.905-9.203c6.208-6.135,9.312-13.994,9.312-23.578c0-9.511-3.231-17.388-9.692-23.633
			C1257.875,1032.116,1249.744,1028.993,1239.942,1028.993z"/>
		<path fill="#231F20" d="M1335.999,1011.351v12.742c8.857-9.802,18.912-14.703,30.167-14.703c6.244,0,12.052,1.617,17.426,4.847
			c5.372,3.231,9.456,7.661,12.252,13.286c2.794,5.628,4.192,14.54,4.192,26.737v57.285h-19.82v-57.067
			c0-10.237-1.563-17.551-4.684-21.945c-3.122-4.392-8.35-6.589-15.683-6.589c-9.366,0-17.316,4.684-23.851,14.05v71.552h-20.257
			v-100.194H1335.999z"/>
		<path fill="#231F20" d="M1513.082,1063.19h-70.463c0.507,9.583,3.72,17.207,9.638,22.87c5.917,5.663,13.56,8.495,22.925,8.495
			c13.069,0,25.12-4.065,36.157-12.198v19.386c-6.099,4.067-12.143,6.97-18.133,8.713c-5.989,1.742-13.015,2.613-21.073,2.613
			c-11.037,0-19.968-2.287-26.791-6.861c-6.826-4.573-12.29-10.727-16.391-18.459c-4.103-7.732-6.153-16.681-6.153-26.846
			c0-15.247,4.318-27.645,12.96-37.192c8.64-9.546,19.856-14.321,33.652-14.321c13.286,0,23.887,4.647,31.801,13.94
			c7.913,9.295,11.871,21.746,11.871,37.355V1063.19z M1443.055,1051.319h50.424c-0.509-7.913-2.869-14.012-7.079-18.297
			c-4.212-4.283-9.875-6.425-16.989-6.425c-7.116,0-12.943,2.142-17.479,6.425
			C1447.392,1037.308,1444.433,1043.406,1443.055,1051.319z"/>
		<path fill="#231F20" d="M1619.921,1063.19h-70.463c0.507,9.583,3.72,17.207,9.638,22.87c5.917,5.663,13.56,8.495,22.925,8.495
			c13.069,0,25.12-4.065,36.157-12.198v19.386c-6.099,4.067-12.143,6.97-18.133,8.713c-5.989,1.742-13.015,2.613-21.073,2.613
			c-11.037,0-19.968-2.287-26.791-6.861c-6.826-4.573-12.29-10.727-16.391-18.459c-4.103-7.732-6.153-16.681-6.153-26.846
			c0-15.247,4.318-27.645,12.96-37.192c8.64-9.546,19.856-14.321,33.652-14.321c13.286,0,23.887,4.647,31.801,13.94
			c7.913,9.295,11.871,21.746,11.871,37.355V1063.19z M1549.894,1051.319h50.424c-0.509-7.913-2.869-14.012-7.079-18.297
			c-4.212-4.283-9.875-6.425-16.989-6.425c-7.116,0-12.943,2.142-17.479,6.425
			C1554.23,1037.308,1551.271,1043.406,1549.894,1051.319z"/>
		<path fill="#231F20" d="M1662.612,1011.351v22.979l1.089-1.743c9.584-15.465,19.168-23.197,28.752-23.197
			c7.477,0,15.282,3.776,23.415,11.326l-10.455,17.426c-6.899-6.534-13.287-9.802-19.168-9.802c-6.39,0-11.926,3.049-16.608,9.148
			c-4.683,6.099-7.024,13.324-7.024,21.672v52.385h-19.931v-100.194H1662.612z"/>
		<path fill="#231F20" d="M1724.798,1104.357v-21.347c5.59,3.921,11.308,7.099,17.152,9.53c5.844,2.433,10.764,3.648,14.757,3.648
			c4.139,0,7.695-1.017,10.674-3.05c2.976-2.032,4.465-4.465,4.465-7.297c0-2.903-0.963-5.317-2.886-7.242
			c-1.925-1.923-6.082-4.7-12.471-8.331c-12.779-7.115-21.146-13.195-25.103-18.242c-3.958-5.046-5.936-10.546-5.936-16.5
			c0-7.694,2.995-13.976,8.984-18.841c5.99-4.863,13.704-7.297,23.144-7.297c9.802,0,19.856,2.761,30.167,8.277v19.604
			c-11.762-7.115-21.384-10.673-28.86-10.673c-3.85,0-6.953,0.818-9.312,2.453c-2.36,1.636-3.54,3.799-3.54,6.487
			c0,2.327,1.069,4.545,3.206,6.651c2.138,2.108,5.895,4.649,11.269,7.624l7.081,4.027c16.703,9.438,25.057,19.89,25.057,31.357
			c0,8.202-3.212,14.936-9.638,20.197c-6.426,5.261-14.686,7.892-24.776,7.892c-5.954,0-11.255-0.636-15.9-1.905
			C1737.685,1110.112,1731.839,1107.771,1724.798,1104.357z"/>
	</g>
</g>
</svg>
